<svg width="720" height="480" viewBox="0 0 720 480" fill="none" xmlns="http://www.w3.org/2000/svg" role="img" aria-labelledby="title desc">
  <title id="title">Yo-kai Watch traducciones</title>
  <desc id="desc">Tarjeta con medallas Yo-kai y símbolos de traducción.</desc>
  <defs>
    <linearGradient id="bg" x1="0" y1="0" x2="720" y2="480" gradientUnits="userSpaceOnUse">
      <stop stop-color="#0b162c"/>
      <stop offset="1" stop-color="#162a4b"/>
    </linearGradient>
    <linearGradient id="medal" x1="0" y1="0" x2="160" y2="160" gradientUnits="userSpaceOnUse">
      <stop stop-color="#6ad6ff"/>
      <stop offset="1" stop-color="#9df5c8"/>
    </linearGradient>
  </defs>
  <rect width="720" height="480" rx="32" fill="url(#bg)"/>
  <rect x="70" y="70" width="580" height="340" rx="28" fill="#0e1c38" stroke="#1f3f74" stroke-width="4"/>
  <g transform="translate(120 120)">
    <circle cx="120" cy="120" r="110" fill="#0e1a31" stroke="#7ff0ff" stroke-width="6"/>
    <circle cx="120" cy="120" r="88" fill="#0b1428" stroke="#243a64" stroke-width="10"/>
    <path d="M120 42l24 58 62 6-48 42 14 62-52-34-52 34 14-62-48-42 62-6 24-58z" fill="url(#medal)" stroke="#0b1428" stroke-width="6"/>
    <circle cx="120" cy="120" r="26" fill="#0b1428" stroke="#7ff0ff" stroke-width="5"/>
    <circle cx="120" cy="120" r="10" fill="#7ff0ff"/>
  </g>
  <g transform="translate(380 132)">
    <rect x="0" y="0" width="240" height="70" rx="16" fill="#13284c" stroke="#6ad6ff" stroke-width="4"/>
    <text x="24" y="44" fill="#e6f1ff" font-family="'Inter','Segoe UI',system-ui" font-size="22" font-weight="800">Yo-kai Watch 4++</text>
    <rect x="0" y="90" width="240" height="70" rx="16" fill="#13284c" stroke="#6ad6ff" stroke-width="4"/>
    <text x="24" y="124" fill="#e6f1ff" font-family="'Inter','Segoe UI',system-ui" font-size="20" font-weight="700">Traducciones 1 · 2 · 3</text>
    <rect x="0" y="180" width="200" height="16" rx="8" fill="#1b2f52"/>
    <rect x="0" y="210" width="170" height="12" rx="6" fill="#1b2f52" opacity=".8"/>
  </g>
  <text x="94" y="420" fill="#e6f1ff" font-family="'Inter','Segoe UI',system-ui" font-weight="800" font-size="26">Parches en castellano · 3DS y Switch</text>
</svg>
