<svg xmlns="http://www.w3.org/2000/svg" viewBox="0 0 600 800" role="img" aria-labelledby="title desc">
  <title id="title">Historia de Sega</title>
  <desc id="desc">Arte con motivos de arcade y elementos de Mega Drive y Dreamcast.</desc>
  <defs>
    <linearGradient id="s-bg" x1="0" x2="1" y1="0" y2="1">
      <stop offset="0" stop-color="#05080f"/>
      <stop offset="1" stop-color="#11204a"/>
    </linearGradient>
    <linearGradient id="s-accent" x1="0" x2="0" y1="0" y2="1">
      <stop offset="0" stop-color="#2af7ff"/>
      <stop offset="1" stop-color="#1461ff"/>
    </linearGradient>
  </defs>
  <rect width="600" height="800" fill="url(#s-bg)"/>
  <g opacity="0.2" stroke="#2af7ff" stroke-width="2">
    <path d="M80 200h440"/>
    <path d="M80 400h440"/>
    <path d="M80 600h440"/>
    <path d="M140 140v520"/>
    <path d="M300 140v520"/>
    <path d="M460 140v520"/>
  </g>
  <g transform="translate(110 160)">
    <rect x="0" y="0" width="120" height="120" rx="18" fill="#2af7ff" opacity="0.6"/>
    <path d="M24 60h72" stroke="#05080f" stroke-width="12" stroke-linecap="round"/>
    <rect x="180" y="-10" width="220" height="140" rx="20" fill="#0a1535" stroke="#2af7ff" stroke-width="6"/>
    <circle cx="220" cy="50" r="18" fill="#2af7ff"/>
    <circle cx="360" cy="50" r="18" fill="#2af7ff"/>
    <rect x="272" y="28" width="36" height="44" rx="10" fill="#2af7ff"/>
  </g>
  <g transform="translate(120 430)">
    <rect x="0" y="0" width="360" height="200" rx="40" fill="rgba(20,50,120,0.6)"/>
    <rect x="30" y="26" width="90" height="148" rx="18" fill="#2af7ff"/>
    <rect x="240" y="26" width="90" height="148" rx="18" fill="#2af7ff"/>
    <path d="M150 60h120" stroke="url(#s-accent)" stroke-width="24" stroke-linecap="round"/>
    <circle cx="180" cy="120" r="16" fill="#05080f"/>
    <circle cx="240" cy="120" r="16" fill="#05080f"/>
  </g>
  <text x="60" y="120" fill="#ffffff" font-family="'Inter', sans-serif" font-size="44" font-weight="700">Historia de</text>
  <text x="60" y="176" fill="#2af7ff" font-family="'Orbitron', sans-serif" font-size="56">Sega</text>
  <text x="60" y="720" fill="#9fc9ff" font-family="'Inter', sans-serif" font-size="22" opacity="0.8">Mega Drive · Saturn · Dreamcast · Arcades</text>
</svg>
