<svg xmlns="http://www.w3.org/2000/svg" viewBox="0 0 320 200" role="img" aria-labelledby="title desc">
  <title id="title">Ilustración plantilla guías Pokémon</title>
  <desc id="desc">Pokébola estilizada con fondo degradado y elementos de interfaz.</desc>
  <defs>
    <linearGradient id="bg" x1="0" x2="1" y1="0" y2="1">
      <stop offset="0" stop-color="#12205a"/>
      <stop offset="1" stop-color="#3b5bff"/>
    </linearGradient>
    <linearGradient id="ball" x1="0" x2="0" y1="0" y2="1">
      <stop offset="0" stop-color="#ff4d6b"/>
      <stop offset="1" stop-color="#d20036"/>
    </linearGradient>
  </defs>
  <rect width="320" height="200" rx="28" ry="28" fill="url(#bg)"/>
  <g opacity="0.25" fill="#8fa9ff">
    <rect x="40" y="46" width="72" height="12" rx="6"/>
    <rect x="40" y="68" width="52" height="12" rx="6"/>
    <rect x="232" y="50" width="48" height="10" rx="5"/>
    <rect x="232" y="68" width="28" height="10" rx="5"/>
  </g>
  <circle cx="160" cy="110" r="64" fill="#0d173f" opacity="0.55"/>
  <path d="M160 54a56 56 0 1 1-56 56 56 56 0 0 1 56-56z" fill="#f0f4ff"/>
  <path d="M160 54a56 56 0 0 1 56 56H104a56 56 0 0 1 56-56z" fill="url(#ball)"/>
  <circle cx="160" cy="110" r="22" fill="#ffffff" stroke="#1d2d66" stroke-width="6"/>
  <circle cx="160" cy="110" r="10" fill="#5ad4ff"/>
  <rect x="88" y="106" width="144" height="8" rx="4" fill="#1d2d66"/>
  <g fill="#9bb7ff" opacity="0.45">
    <circle cx="70" cy="142" r="8"/>
    <circle cx="250" cy="150" r="6"/>
    <circle cx="270" cy="128" r="5"/>
  </g>
</svg>
