<svg xmlns="http://www.w3.org/2000/svg" viewBox="0 0 320 200" role="img" aria-labelledby="title desc">
  <title id="title">Ilustración guía Pokémon Platino</title>
  <desc id="desc">Diamante central con motivos helados y eléctricos representando a Giratina y la región de Sinnoh.</desc>
  <defs>
    <linearGradient id="bg" x1="0" x2="1" y1="0" y2="1">
      <stop offset="0" stop-color="#1d0d32"/>
      <stop offset="1" stop-color="#5922a2"/>
    </linearGradient>
    <linearGradient id="crystal" x1="0" x2="0" y1="0" y2="1">
      <stop offset="0" stop-color="#faf7ff"/>
      <stop offset="1" stop-color="#c5d5ff"/>
    </linearGradient>
    <linearGradient id="energy" x1="0" x2="1" y1="0" y2="1">
      <stop offset="0" stop-color="#ffb347"/>
      <stop offset="1" stop-color="#ff3c8d"/>
    </linearGradient>
  </defs>
  <rect width="320" height="200" rx="28" ry="28" fill="url(#bg)"/>
  <polygon points="160,44 242,100 160,156 78,100" fill="url(#crystal)" stroke="#ffffff" stroke-opacity="0.35" stroke-width="4"/>
  <polygon points="160,60 224,100 160,140 96,100" fill="#2a1546" opacity="0.55"/>
  <circle cx="160" cy="100" r="30" fill="url(#energy)"/>
  <path d="M160 74c10 8 16 18 16 26s-6 16-16 24c-10-8-16-16-16-24s6-18 16-26z" fill="#ffd6f4" opacity="0.8"/>
  <g stroke="#ffe9ff" stroke-linecap="round" stroke-width="4">
    <path d="M40 70h48"/>
    <path d="M232 132h48"/>
    <path d="M264 70l12-12"/>
    <path d="M44 132l-12 12"/>
  </g>
  <g fill="#ffd6f4" opacity="0.6">
    <circle cx="74" cy="152" r="6"/>
    <circle cx="260" cy="52" r="5"/>
    <circle cx="232" cy="168" r="7"/>
  </g>
</svg>
