<svg xmlns="http://www.w3.org/2000/svg" viewBox="0 0 320 200" role="img" aria-labelledby="title desc">
  <title id="title">Ilustración guía Pokémon Leyendas: Z-A</title>
  <desc id="desc">Horizonte de Luminalia con arquitectura art déco y símbolos de megaevolución.</desc>
  <defs>
    <linearGradient id="sky" x1="0" x2="1" y1="0" y2="1">
      <stop offset="0" stop-color="#0c1834"/>
      <stop offset="1" stop-color="#1f7dba"/>
    </linearGradient>
    <linearGradient id="mega" x1="0" x2="1" y1="0" y2="1">
      <stop offset="0" stop-color="#ffcf57"/>
      <stop offset="1" stop-color="#ff67d2"/>
    </linearGradient>
  </defs>
  <rect width="320" height="200" rx="28" ry="28" fill="url(#sky)"/>
  <path d="M20 148h280v44H20z" fill="#081122" opacity="0.85"/>
  <g fill="#0f2749">
    <rect x="60" y="110" width="24" height="38" rx="6"/>
    <rect x="92" y="98" width="28" height="50" rx="6"/>
    <rect x="130" y="90" width="32" height="58" rx="6"/>
    <rect x="174" y="102" width="36" height="46" rx="6"/>
    <rect x="218" y="96" width="28" height="52" rx="6"/>
    <rect x="252" y="108" width="22" height="40" rx="6"/>
  </g>
  <g fill="#13b0ff" opacity="0.4">
    <rect x="40" y="72" width="46" height="10" rx="5"/>
    <rect x="230" y="62" width="48" height="10" rx="5"/>
    <rect x="120" y="54" width="58" height="10" rx="5"/>
  </g>
  <circle cx="160" cy="84" r="42" fill="#102749"/>
  <circle cx="160" cy="84" r="34" fill="#0a1630"/>
  <path d="M160 52c18 0 32 12 32 32s-18 40-32 58c-14-18-32-38-32-58s14-32 32-32z" fill="url(#mega)"/>
  <path d="M160 66c10 0 18 8 18 18s-8 18-18 18-18-8-18-18 8-18 18-18z" fill="#0a1630"/>
  <circle cx="160" cy="84" r="10" fill="#ffffff" opacity="0.6"/>
  <g stroke="#38d5ff" stroke-linecap="round" stroke-width="4" opacity="0.7">
    <path d="M40 60h32"/>
    <path d="M248 46h36"/>
    <path d="M80 40l14-14"/>
    <path d="M250 150l14 14"/>
  </g>
</svg>
